<?xml version="1.0" standalone="no"?>
<!DOCTYPE svg PUBLIC "-//W3C//DTD SVG 20010904//EN"
 "http://www.w3.org/TR/2001/REC-SVG-20010904/DTD/svg10.dtd">
<svg version="1.0" xmlns="http://www.w3.org/2000/svg"
 width="512.000000pt" height="512.000000pt" viewBox="0 0 512.000000 512.000000"
 preserveAspectRatio="xMidYMid meet">
<metadata>
Created by potrace 1.14, written by Peter Selinger 2001-2017
</metadata>
<g transform="translate(0.000000,512.000000) scale(0.100000,-0.100000)"
fill="#000000" stroke="none">
<path d="M2850 4395 c-8 -2 -49 -9 -90 -15 -96 -16 -109 -23 -103 -55 5 -24 3
-25 -40 -25 -27 0 -47 5 -50 13 -3 8 -24 2 -73 -23 l-69 -35 115 -5 c111 -5
115 -6 118 -28 l3 -23 -155 2 c-147 1 -158 0 -193 -23 l-38 -23 110 -5 c105
-5 110 -6 113 -27 3 -20 -1 -23 -30 -23 -101 -1 -246 -13 -265 -22 -23 -11
-32 -38 -13 -38 6 0 10 -9 10 -19 0 -20 -18 -31 -50 -31 -10 0 -34 -18 -53
-41 -42 -49 -143 -249 -153 -302 -3 -20 -9 -39 -13 -41 -3 -2 -40 2 -81 9
-179 33 -347 12 -498 -61 -204 -99 -344 -272 -407 -505 -13 -50 -26 -92 -27
-93 -2 -2 -23 -8 -48 -15 -115 -32 -259 -150 -330 -271 -85 -144 -100 -289
-49 -480 4 -13 13 -32 66 -132 18 -35 140 -156 164 -163 11 -4 19 -11 19 -16
0 -5 9 -9 20 -9 11 0 20 -4 20 -9 0 -23 169 -67 273 -70 27 -1 27 -1 27 -73 0
-119 35 -273 86 -371 8 -16 14 -35 14 -43 0 -8 5 -14 10 -14 6 0 10 -9 10 -20
0 -10 6 -23 13 -27 6 -4 21 -24 31 -43 19 -34 49 -73 110 -146 33 -39 162
-147 189 -157 9 -3 17 -11 17 -17 0 -5 9 -10 20 -10 11 0 20 -3 20 -8 0 -4 28
-20 63 -35 34 -15 75 -34 90 -42 16 -8 36 -15 46 -15 9 0 21 -4 27 -9 18 -17
193 -41 297 -41 119 0 223 17 335 56 78 26 204 86 232 109 8 6 24 16 35 21 13
6 -42 10 -157 12 -98 1 -178 6 -178 11 0 5 -3 16 -6 25 -5 14 16 16 194 16
111 0 212 4 226 10 14 5 50 35 80 66 l55 57 38 -28 c21 -16 40 -32 43 -36 12
-15 122 -71 181 -91 122 -41 327 -25 444 36 86 44 175 120 227 194 52 73 53
73 88 66 74 -15 233 -10 295 10 53 17 76 27 158 73 25 14 137 123 137 134 0 4
6 14 13 21 16 18 42 71 67 140 23 63 32 187 19 267 -16 101 -73 212 -149 292
-21 22 -33 43 -29 51 62 129 83 234 77 390 -6 149 -42 277 -99 360 -26 36 -25
38 19 38 22 0 64 13 102 33 52 26 72 43 102 87 34 50 37 61 38 123 0 115 -54
202 -155 248 -22 10 -53 19 -69 19 -28 0 -55 23 -56 48 0 17 -53 68 -92 88
-36 19 -144 22 -161 5 -19 -19 -24 -12 -36 49 -23 114 -125 207 -240 217 -55
5 -60 8 -79 42 -21 37 -156 174 -202 204 -149 100 -193 124 -291 158 -101 34
-193 49 -334 54 -71 2 -137 2 -145 0z"/>
</g>
</svg>
